<svg id="Camada_1" data-name="Camada 1" xmlns="http://www.w3.org/2000/svg" viewBox="0 0 496.66 499.21"><title>globe2</title><path d="M264,249.59c-4.73,136.79-15.3,248.08-23.59,248.58s-11.18-110-6.44-246.77l.1-2.85C238.84,111.76,249.4.46,257.69,0s11.18,110,6.44,246.77Z" transform="translate(-0.74 0.54)" style="fill:none;stroke:#000"/><path d="M362.8,287.43c-43.73,129.7-130.11,217.68-192.92,196.51S91.59,340.47,135.32,210.78l0-.06C179.07,81,265.45-7,328.26,14.2s78.29,143.47,34.55,273.16Z" transform="translate(-0.74 0.54)" style="fill:none;stroke:#000"/><path d="M383.77,387.16c-98,95.58-237.72,111.23-312.11,35S16.39,206.55,114.36,111,352.08-.25,426.47,76,481.75,291.58,383.77,387.16Z" transform="translate(-0.74 0.54)" style="fill:none;stroke:#000"/><path d="M278.73,37C414.28,56,510.9,166.29,494.52,283.4S355,480.08,219.41,461.12-12.76,331.86,3.62,214.75,143.17,18.07,278.73,37Z" transform="translate(-0.74 0.54)" style="fill:none;stroke:#000"/><path d="M392,143.11c81.51,110,83.59,246.54,4.64,305.07S187.63,465,106.12,355,22.53,108.5,101.48,50,310.5,33.15,392,143.11Z" transform="translate(-0.74 0.54)" style="fill:none;stroke:#000"/><path d="M340.48,226.78c32.43,133,17.79,250.75-32.69,263.07s-117.7-85.51-150.13-218.48S139.87,20.61,190.35,8.3,308.05,93.8,340.48,226.78Z" transform="translate(-0.74 0.54)" style="fill:none;stroke:#000"/><path d="M308.38,457.46c.21,16.38-26.17,29.74-58.93,29.85S190,474.22,189.76,457.84q0-.19,0-.38c-.21-16.38,26.17-29.74,58.93-29.85s59.48,13.09,59.69,29.47Q308.38,457.27,308.38,457.46Z" transform="translate(-0.74 0.54)" style="fill:none;stroke:#000"/><path d="M364.24,439.11c0,31.81-51.56,57.59-115.17,57.59S133.9,470.92,133.9,439.11h0c0-31.81,51.56-57.59,115.17-57.59S364.24,407.31,364.24,439.11Z" transform="translate(-0.74 0.54)" style="fill:none;stroke:#000"/><path d="M413.41,409.72c.7,45.38-72.3,82.46-163.06,82.81S85.44,456.38,84.74,411q0-.64,0-1.28C84,364.34,157,327.26,247.8,326.91s164.91,36.15,165.61,81.53Q413.42,409.08,413.41,409.72Z" transform="translate(-0.74 0.54)" style="fill:none;stroke:#000"/><path d="M453,371c0,56.32-91.32,102-204,102s-204-45.66-204-102,91.32-102,204-102S453,314.67,453,371Z" transform="translate(-0.74 0.54)" style="fill:none;stroke:#000"/><path d="M480.8,325.18c.84,64-102.23,116.2-230.21,116.62S18.19,390.68,17.35,326.69q0-.76,0-1.52c-.84-64,102.23-116.2,230.21-116.62S480,259.67,480.8,323.66Q480.81,324.42,480.8,325.18Z" transform="translate(-0.74 0.54)" style="fill:none;stroke:#000"/><path d="M495.09,274.94c.61,67.94-109,123.26-244.91,123.57S3.66,344,3.05,276q0-.55,0-1.11C2.44,207,112.09,151.68,248,151.37s246.52,54.52,247.13,122.46Q495.1,274.39,495.09,274.94Z" transform="translate(-0.74 0.54)" style="fill:none;stroke:#000"/><path d="M495.09,223.2c.61,67.94-109,123.26-244.91,123.57S3.66,292.25,3.05,224.31q0-.55,0-1.11C2.44,155.26,112.09,99.94,248,99.63s246.52,54.52,247.13,122.46Q495.1,222.64,495.09,223.2Z" transform="translate(-0.74 0.54)" style="fill:none;stroke:#000"/><path d="M480.8,173c.84,64-102.23,116.2-230.21,116.62S18.19,238.47,17.35,174.48q0-.76,0-1.52c-.84-64,102.23-116.2,230.21-116.62S480,107.46,480.8,171.45Q480.81,172.2,480.8,173Z" transform="translate(-0.74 0.54)" style="fill:none;stroke:#000"/><path d="M453,127.15c0,56.32-91.32,102-204,102s-204-45.66-204-102,91.32-102,204-102S453,70.82,453,127.15Z" transform="translate(-0.74 0.54)" style="fill:none;stroke:#000"/><path d="M413.41,88.42c.7,45.38-72.3,82.46-163.06,82.81S85.44,135.08,84.74,89.69q0-.64,0-1.28C84,43,157,6,247.8,5.61S412.71,41.76,413.41,87.14Q413.42,87.78,413.41,88.42Z" transform="translate(-0.74 0.54)" style="fill:none;stroke:#000"/><path d="M364.24,59c0,31.81-51.56,57.59-115.17,57.59S133.9,90.83,133.9,59,185.46,1.44,249.07,1.44,364.24,27.22,364.24,59Z" transform="translate(-0.74 0.54)" style="fill:none;stroke:#000"/><path d="M308.38,40.68c.21,16.38-26.17,29.74-58.93,29.85S190,57.44,189.76,41.06q0-.19,0-.38c-.21-16.38,26.17-29.74,58.93-29.85s59.48,13.09,59.69,29.47Q308.38,40.49,308.38,40.68Z" transform="translate(-0.74 0.54)" style="fill:none;stroke:#000"/><path d="M496.9,249.07c0,136.87-111,247.83-247.83,247.83S1.24,385.94,1.24,249.07,112.2,1.24,249.07,1.24,496.9,112.2,496.9,249.07Z" transform="translate(-0.74 0.54)" style="fill:none;stroke:#000"/><circle cx="122.46" cy="162.97" r="35.28" style="stroke:#fff;stroke-miterlimit:10"/><circle cx="153.14" cy="371.53" r="35.28" style="stroke:#fff;stroke-miterlimit:10"/><circle cx="337.89" cy="135.45" r="35.28" style="stroke:#fff;stroke-miterlimit:10"/><circle cx="363.5" cy="286.07" r="35.28" style="stroke:#fff;stroke-miterlimit:10"/><circle cx="230.99" cy="156.78" r="35.28" style="fill:#d41116;stroke:#fff;stroke-miterlimit:10"/><circle cx="97.87" cy="264.95" r="35.28" style="fill:#d41116;stroke:#fff;stroke-miterlimit:10"/><circle cx="398.78" cy="209.09" r="35.28" style="fill:#d41116;stroke:#fff;stroke-miterlimit:10"/><circle cx="258.99" cy="361" r="35.28" style="fill:#d41116;stroke:#fff;stroke-miterlimit:10"/><circle cx="223.7" cy="237.07" r="35.28" style="fill:#d41116;stroke:#fff;stroke-miterlimit:10"/><circle cx="188.42" cy="76.5" r="35.28" style="fill:#d41116;stroke:#fff;stroke-miterlimit:10"/><circle cx="356.99" cy="389.78" r="35.28" style="fill:#d41116;stroke:#fff;stroke-miterlimit:10"/></svg>